<svg width="105" height="59" viewBox="0 0 105 59" fill="none" xmlns="http://www.w3.org/2000/svg">
<circle cx="29.0067" cy="29.0067" r="21.755" stroke="#4632DA" stroke-width="14.5034"/>
<path d="M58.665 56.3104C61.6525 56.9672 64.7204 55.1944 65.728 52.3299L69.114 42.1867L63.9809 39.2954C63.3912 38.9673 62.7502 38.7415 62.085 38.6278C60.2452 38.3061 58.2324 38.7983 57.0798 40.3299C57.0051 40.4243 56.9036 40.494 56.7886 40.5297L54.2349 48.2568C53.0372 51.6635 55.1158 55.5319 58.6662 56.3117L58.665 56.3104ZM64.2367 31.6061C66.9879 30.4401 70.0643 30.1002 73.0178 30.4949L80.6986 7.50121C80.9518 6.72549 81.3083 5.98741 81.7586 5.30686C82.425 4.33579 83.1293 3.70832 84.048 3.26969C84.5402 3.02845 85.2249 2.97484 85.9511 3.03088C82.5384 1.59317 78.7747 1.03758 75.1987 2.17191C72.0831 3.1608 69.446 5.27203 67.7993 8.09579C67.3765 8.82683 67.0244 9.59808 66.7454 10.3961L57.9985 36.8659C58.3275 36.4285 58.6613 36.007 59.0049 35.6037C60.4536 33.9004 62.0716 32.5248 64.2392 31.6061H64.2367Z" fill="#4632DA"/>
<path d="M103.878 47.0374C103.821 47.0995 103.769 47.1678 103.701 47.2128C102.834 47.7904 101.515 46.6524 100.743 46.2052C94.8933 42.8242 89.0608 39.4151 83.1747 36.0998C79.9861 34.3039 77.0035 32.419 73.3544 31.755C68.0446 30.9338 62.8322 32.7419 60.036 36.3995L59.1953 37.518C59.7808 37.3627 60.3843 37.2852 60.99 37.2877C61.319 37.2877 61.6467 37.3133 61.9721 37.3572C62.9428 37.4669 63.8812 37.7724 64.7305 38.2551L95.2235 55.4334C98.0441 56.9942 101.629 56.7091 103.549 53.9226L103.729 53.6436C104.214 52.8593 104.518 51.977 104.619 51.0607C104.72 50.1444 104.616 49.217 104.314 48.346L103.88 47.0374H103.878ZM84.4333 4.67716C82.4534 5.63605 82.0708 7.69515 81.4397 9.58611L80.125 13.5216L88.0081 37.3608L102.907 45.981C102.959 45.7057 103.002 45.1452 102.876 44.0097C102.869 43.9772 102.864 43.9442 102.862 43.911C102.009 41.3206 91.7998 9.5057 90.8019 7.42344C90.3194 6.41704 89.6225 5.48497 88.6734 4.89769C88.0393 4.515 87.3205 4.29475 86.5808 4.2565C85.8412 4.21824 85.1035 4.36315 84.4333 4.67838V4.67716Z" fill="#4632DA"/>
</svg>
